<svg width="20" height="19" viewBox="0 0 20 19" fill="none" xmlns="http://www.w3.org/2000/svg">
<path d="M0 3.70273C0 2.91612 0.263392 2.16173 0.732233 1.60551C1.20107 1.0493 1.83696 0.736816 2.5 0.736816H17.5C18.163 0.736816 18.7989 1.0493 19.2678 1.60551C19.7366 2.16173 20 2.91612 20 3.70273V15.5664C20 16.353 19.7366 17.1074 19.2678 17.6636C18.7989 18.2198 18.163 18.5323 17.5 18.5323H2.5C1.83696 18.5323 1.20107 18.2198 0.732233 17.6636C0.263392 17.1074 0 16.353 0 15.5664V3.70273ZM2.5 2.21977C2.16848 2.21977 1.85054 2.37601 1.61612 2.65412C1.3817 2.93223 1.25 3.30942 1.25 3.70273V4.02453L10 10.2529L18.75 4.02453V3.70273C18.75 3.30942 18.6183 2.93223 18.3839 2.65412C18.1495 2.37601 17.8315 2.21977 17.5 2.21977H2.5ZM18.75 5.75365L12.865 9.943L18.75 14.2391V5.75365ZM18.7075 15.9504L11.6575 10.8031L10 11.9821L8.3425 10.8031L1.2925 15.949C1.36353 16.2645 1.5204 16.5435 1.73874 16.7424C1.95708 16.9414 2.22468 17.0493 2.5 17.0493H17.5C17.7752 17.0494 18.0426 16.9417 18.261 16.743C18.4793 16.5443 18.6362 16.2657 18.7075 15.9504ZM1.25 14.2391L7.135 9.943L1.25 5.75365V14.2391Z" fill="white" style="fill:white;fill-opacity:1;"/>
</svg>
