<svg width="20" height="23" viewBox="0 0 20 23" fill="none" xmlns="http://www.w3.org/2000/svg">
<path d="M4.56809 2.21194C4.4943 2.10469 4.40115 2.0164 4.29484 1.95295C4.18853 1.8895 4.07149 1.85233 3.95149 1.84391C3.83149 1.8355 3.71127 1.85603 3.59883 1.90414C3.48639 1.95225 3.3843 2.02684 3.29934 2.12296L2.00684 3.58473C1.40309 4.2683 1.18059 5.23575 1.44434 6.08457C2.53901 9.59788 4.31971 12.7877 6.65434 15.4173C8.98175 18.0551 11.8049 20.067 14.9143 21.3039C15.6656 21.6019 16.5218 21.3505 17.1268 20.6684L18.4193 19.208C18.5044 19.112 18.5704 18.9967 18.613 18.8696C18.6556 18.7426 18.6738 18.6068 18.6663 18.4712C18.6589 18.3356 18.626 18.2033 18.5698 18.0832C18.5136 17.9631 18.4355 17.8579 18.3406 17.7745L15.4568 15.2408C15.3554 15.1519 15.2375 15.0902 15.1119 15.0603C14.9863 15.0305 14.8563 15.0333 14.7318 15.0684L11.9943 15.841C11.6289 15.9442 11.2461 15.9387 10.8831 15.8251C10.5202 15.7115 10.1894 15.4936 9.92309 15.1927L6.85309 11.7226C6.58655 11.4218 6.3935 11.0482 6.29273 10.6381C6.19196 10.228 6.18692 9.79535 6.27809 9.38238L6.96309 6.28936C6.99422 6.14868 6.99667 6.00185 6.97026 5.85995C6.94384 5.71805 6.88924 5.58478 6.81059 5.4702L4.56809 2.21194ZM2.35559 1.05806C2.57433 0.810828 2.83712 0.619006 3.12651 0.495329C3.4159 0.371651 3.72527 0.31895 4.03407 0.340723C4.34286 0.362496 4.64403 0.458245 4.91757 0.621613C5.1911 0.784982 5.43075 1.01223 5.62059 1.28827L7.86309 4.54512C8.27434 5.14254 8.41934 5.92074 8.25684 6.65515L7.57309 9.74817C7.53774 9.90837 7.53965 10.0762 7.57863 10.2353C7.61762 10.3944 7.69236 10.5395 7.79559 10.6563L10.8668 14.1264C10.9704 14.2433 11.099 14.3279 11.24 14.3719C11.3811 14.416 11.5299 14.418 11.6718 14.3778L14.4081 13.6053C14.7289 13.5146 15.0637 13.5076 15.3872 13.5847C15.7107 13.6618 16.0145 13.8209 16.2756 14.0502L19.1581 16.5839C20.1943 17.4948 20.2893 19.225 19.3618 20.2715L18.0693 21.7319C17.1443 22.777 15.7618 23.236 14.4731 22.7233C11.1746 21.412 8.17968 19.2784 5.71059 16.4808C3.2347 13.6914 1.34635 10.3081 0.185589 6.58171C-0.266911 5.127 0.139339 3.56355 1.06434 2.51842L2.35684 1.05806H2.35559Z" fill="white" style="fill:white;fill-opacity:1;"/>
</svg>
